<?xml version="1.0" encoding="UTF-8" standalone="no"?>
<!DOCTYPE svg PUBLIC "-//W3C//DTD SVG 1.1//EN"
 "http://www.w3.org/Graphics/SVG/1.1/DTD/svg11.dtd">
<!-- Generated by graphviz version 2.40.1 (20161225.0304)
 -->
<!-- Title: G Pages: 1 -->
<svg width="572pt" height="628pt"
 viewBox="0.00 0.00 571.69 628.00" xmlns="http://www.w3.org/2000/svg" xmlns:xlink="http://www.w3.org/1999/xlink">
<g id="graph0" class="graph" transform="scale(1 1) rotate(0) translate(4 624)">
<title>G</title>
<polygon fill="#ffffff" stroke="transparent" points="-4,4 -4,-624 567.6897,-624 567.6897,4 -4,4"/>
<g id="clust1" class="cluster">
<title>cluster_Global</title>
<path fill="none" stroke="#c0c0c0" d="M20,-8C20,-8 543.6897,-8 543.6897,-8 549.6897,-8 555.6897,-14 555.6897,-20 555.6897,-20 555.6897,-600 555.6897,-600 555.6897,-606 549.6897,-612 543.6897,-612 543.6897,-612 20,-612 20,-612 14,-612 8,-606 8,-600 8,-600 8,-20 8,-20 8,-14 14,-8 20,-8"/>
<text text-anchor="middle" x="281.8449" y="-599.2" font-family="Times,serif" font-size="11.00" fill="#c0c0c0">Global</text>
</g>
<g id="clust2" class="cluster">
<title>cluster_\acdhOeaw</title>
<path fill="none" stroke="#c0c0c0" d="M191.6897,-16C191.6897,-16 535.6897,-16 535.6897,-16 541.6897,-16 547.6897,-22 547.6897,-28 547.6897,-28 547.6897,-572 547.6897,-572 547.6897,-578 541.6897,-584 535.6897,-584 535.6897,-584 191.6897,-584 191.6897,-584 185.6897,-584 179.6897,-578 179.6897,-572 179.6897,-572 179.6897,-28 179.6897,-28 179.6897,-22 185.6897,-16 191.6897,-16"/>
<text text-anchor="middle" x="363.6897" y="-571.2" font-family="Times,serif" font-size="11.00" fill="#c0c0c0">acdhOeaw</text>
</g>
<g id="clust3" class="cluster">
<title>cluster_\acdhOeaw\acdhRepoLib</title>
<path fill="none" stroke="#c0c0c0" d="M199.6897,-24C199.6897,-24 527.6897,-24 527.6897,-24 533.6897,-24 539.6897,-30 539.6897,-36 539.6897,-36 539.6897,-544 539.6897,-544 539.6897,-550 533.6897,-556 527.6897,-556 527.6897,-556 199.6897,-556 199.6897,-556 193.6897,-556 187.6897,-550 187.6897,-544 187.6897,-544 187.6897,-36 187.6897,-36 187.6897,-30 193.6897,-24 199.6897,-24"/>
<text text-anchor="middle" x="363.6897" y="-543.2" font-family="Times,serif" font-size="11.00" fill="#c0c0c0">acdhRepoLib</text>
</g>
<g id="clust4" class="cluster">
<title>cluster_\acdhOeaw\acdhRepoLib\exception</title>
<path fill="none" stroke="#c0c0c0" d="M207.6897,-348C207.6897,-348 517.6897,-348 517.6897,-348 523.6897,-348 529.6897,-354 529.6897,-360 529.6897,-360 529.6897,-516 529.6897,-516 529.6897,-522 523.6897,-528 517.6897,-528 517.6897,-528 207.6897,-528 207.6897,-528 201.6897,-528 195.6897,-522 195.6897,-516 195.6897,-516 195.6897,-360 195.6897,-360 195.6897,-354 201.6897,-348 207.6897,-348"/>
<text text-anchor="middle" x="362.6897" y="-515.2" font-family="Times,serif" font-size="11.00" fill="#c0c0c0">exception</text>
</g>
<!-- \\acdhOeaw\\acdhRepoLib\\exception\\AmbiguousMatch -->
<g id="node1" class="node">
<title>\\acdhOeaw\\acdhRepoLib\\exception\\AmbiguousMatch</title>
<polygon fill="none" stroke="#000000" points="521.6897,-500 410.6897,-500 410.6897,-464 521.6897,-464 521.6897,-500"/>
<text text-anchor="middle" x="466.1897" y="-479.2" font-family="Courier,monospace" font-size="11.00" fill="#000000">AmbiguousMatch</text>
</g>
<!-- \\acdhOeaw\\acdhRepoLib\\exception\\RepoLibException -->
<g id="node4" class="node">
<title>\\acdhOeaw\\acdhRepoLib\\exception\\RepoLibException</title>
<polygon fill="none" stroke="#000000" points="328.6897,-446 203.6897,-446 203.6897,-410 328.6897,-410 328.6897,-446"/>
<text text-anchor="middle" x="266.1897" y="-425.2" font-family="Courier,monospace" font-size="11.00" fill="#000000">RepoLibException</text>
</g>
<!-- \\acdhOeaw\\acdhRepoLib\\exception\\AmbiguousMatch&#45;&gt;\\acdhOeaw\\acdhRepoLib\\exception\\RepoLibException -->
<g id="edge2" class="edge">
<title>\\acdhOeaw\\acdhRepoLib\\exception\\AmbiguousMatch&#45;&gt;\\acdhOeaw\\acdhRepoLib\\exception\\RepoLibException</title>
<path fill="none" stroke="#000000" d="M410.4786,-466.958C388.33,-460.9779 362.549,-454.017 338.957,-447.6472"/>
<polygon fill="none" stroke="#000000" points="339.5638,-444.1857 328.9972,-444.958 337.7391,-450.9437 339.5638,-444.1857"/>
</g>
<!-- \\acdhOeaw\\acdhRepoLib\\exception\\Deleted -->
<g id="node2" class="node">
<title>\\acdhOeaw\\acdhRepoLib\\exception\\Deleted</title>
<polygon fill="none" stroke="#000000" points="498.1897,-446 434.1897,-446 434.1897,-410 498.1897,-410 498.1897,-446"/>
<text text-anchor="middle" x="466.1897" y="-425.2" font-family="Courier,monospace" font-size="11.00" fill="#000000">Deleted</text>
</g>
<!-- \\acdhOeaw\\acdhRepoLib\\exception\\Deleted&#45;&gt;\\acdhOeaw\\acdhRepoLib\\exception\\RepoLibException -->
<g id="edge3" class="edge">
<title>\\acdhOeaw\\acdhRepoLib\\exception\\Deleted&#45;&gt;\\acdhOeaw\\acdhRepoLib\\exception\\RepoLibException</title>
<path fill="none" stroke="#000000" d="M434.0563,-428C408.5491,-428 371.8879,-428 339.3296,-428"/>
<polygon fill="none" stroke="#000000" points="338.9223,-424.5001 328.9222,-428 338.9222,-431.5001 338.9223,-424.5001"/>
</g>
<!-- \\acdhOeaw\\acdhRepoLib\\exception\\NotFound -->
<g id="node3" class="node">
<title>\\acdhOeaw\\acdhRepoLib\\exception\\NotFound</title>
<polygon fill="none" stroke="#000000" points="501.6897,-392 430.6897,-392 430.6897,-356 501.6897,-356 501.6897,-392"/>
<text text-anchor="middle" x="466.1897" y="-371.2" font-family="Courier,monospace" font-size="11.00" fill="#000000">NotFound</text>
</g>
<!-- \\acdhOeaw\\acdhRepoLib\\exception\\NotFound&#45;&gt;\\acdhOeaw\\acdhRepoLib\\exception\\RepoLibException -->
<g id="edge4" class="edge">
<title>\\acdhOeaw\\acdhRepoLib\\exception\\NotFound&#45;&gt;\\acdhOeaw\\acdhRepoLib\\exception\\RepoLibException</title>
<path fill="none" stroke="#000000" d="M430.4337,-383.6541C404.9861,-390.525 369.9128,-399.9948 338.7096,-408.4196"/>
<polygon fill="none" stroke="#000000" points="337.4737,-405.1279 328.7317,-411.1137 339.2984,-411.8859 337.4737,-405.1279"/>
</g>
<!-- Exception -->
<g id="node12" class="node">
<title>Exception</title>
<ellipse fill="none" stroke="#000000" cx="73.8449" cy="-428" rx="57.6901" ry="18"/>
<text text-anchor="middle" x="73.8449" y="-424.3" font-family="Times,serif" font-size="14.00" fill="#c0c0c0">Exception</text>
</g>
<!-- \\acdhOeaw\\acdhRepoLib\\exception\\RepoLibException&#45;&gt;Exception -->
<g id="edge5" class="edge">
<title>\\acdhOeaw\\acdhRepoLib\\exception\\RepoLibException&#45;&gt;Exception</title>
<path fill="none" stroke="#000000" d="M203.475,-428C183.8703,-428 162.1465,-428 142.1756,-428"/>
<polygon fill="none" stroke="#000000" points="141.9124,-424.5001 131.9124,-428 141.9123,-431.5001 141.9124,-424.5001"/>
</g>
<!-- \\acdhOeaw\\acdhRepoLib\\Repo -->
<g id="node5" class="node">
<title>\\acdhOeaw\\acdhRepoLib\\Repo</title>
<polygon fill="none" stroke="#000000" points="493.1897,-338 439.1897,-338 439.1897,-302 493.1897,-302 493.1897,-338"/>
<text text-anchor="middle" x="466.1897" y="-317.2" font-family="Courier,monospace" font-size="11.00" fill="#000000">Repo</text>
</g>
<!-- \\acdhOeaw\\acdhRepoLib\\RepoInterface -->
<g id="node9" class="node">
<title>\\acdhOeaw\\acdhRepoLib\\RepoInterface</title>
<polygon fill="none" stroke="#000000" points="318.1897,-338 214.1897,-338 214.1897,-302 318.1897,-302 318.1897,-338"/>
<text text-anchor="middle" x="266.1897" y="-317.2" font-family="Courier,monospace" font-size="11.00" fill="#000000">RepoInterface</text>
</g>
<!-- \\acdhOeaw\\acdhRepoLib\\Repo&#45;&gt;\\acdhOeaw\\acdhRepoLib\\RepoInterface -->
<g id="edge1" class="edge">
<title>\\acdhOeaw\\acdhRepoLib\\Repo&#45;&gt;\\acdhOeaw\\acdhRepoLib\\RepoInterface</title>
<path fill="none" stroke="#000000" stroke-dasharray="1,5" d="M438.7999,-320C410.539,-320 365.4915,-320 328.5024,-320"/>
<polygon fill="none" stroke="#000000" points="328.3039,-316.5001 318.3039,-320 328.3039,-323.5001 328.3039,-316.5001"/>
</g>
<!-- \\acdhOeaw\\acdhRepoLib\\Schema -->
<g id="node6" class="node">
<title>\\acdhOeaw\\acdhRepoLib\\Schema</title>
<polygon fill="none" stroke="#000000" points="494.6897,-284 437.6897,-284 437.6897,-248 494.6897,-248 494.6897,-284"/>
<text text-anchor="middle" x="466.1897" y="-263.2" font-family="Courier,monospace" font-size="11.00" fill="#000000">Schema</text>
</g>
<!-- \\acdhOeaw\\acdhRepoLib\\QueryPart -->
<g id="node7" class="node">
<title>\\acdhOeaw\\acdhRepoLib\\QueryPart</title>
<polygon fill="none" stroke="#000000" points="504.6897,-230 427.6897,-230 427.6897,-194 504.6897,-194 504.6897,-230"/>
<text text-anchor="middle" x="466.1897" y="-209.2" font-family="Courier,monospace" font-size="11.00" fill="#000000">QueryPart</text>
</g>
<!-- \\acdhOeaw\\acdhRepoLib\\SearchConfig -->
<g id="node8" class="node">
<title>\\acdhOeaw\\acdhRepoLib\\SearchConfig</title>
<polygon fill="none" stroke="#000000" points="515.1897,-176 417.1897,-176 417.1897,-140 515.1897,-140 515.1897,-176"/>
<text text-anchor="middle" x="466.1897" y="-155.2" font-family="Courier,monospace" font-size="11.00" fill="#000000">SearchConfig</text>
</g>
<!-- \\acdhOeaw\\acdhRepoLib\\AuthInterface -->
<g id="node10" class="node">
<title>\\acdhOeaw\\acdhRepoLib\\AuthInterface</title>
<polygon fill="none" stroke="#000000" points="518.1897,-122 414.1897,-122 414.1897,-86 518.1897,-86 518.1897,-122"/>
<text text-anchor="middle" x="466.1897" y="-101.2" font-family="Courier,monospace" font-size="11.00" fill="#000000">AuthInterface</text>
</g>
<!-- \\acdhOeaw\\acdhRepoLib\\RepoResourceTrait -->
<g id="node11" class="node">
<title>\\acdhOeaw\\acdhRepoLib\\RepoResourceTrait</title>
<polygon fill="none" stroke="#000000" points="531.6897,-68 400.6897,-68 400.6897,-32 531.6897,-32 531.6897,-68"/>
<text text-anchor="middle" x="466.1897" y="-47.2" font-family="Courier,monospace" font-size="11.00" fill="#000000">RepoResourceTrait</text>
</g>
</g>
</svg>
